# xmcd
#
# Track frame offsets:
#	150
#	18120
#	33351
#	45259
#
# Disc length: 882 seconds
#
# Revision: 1
# Processed by: cddbd v1.5.2PL0 Copyright (c) Steve Scherf et al.
# Submitted via: audiograbber 1.83.01
#
DISCID=1e037004
DTITLE=Doc Walker - Remember December
DYEAR=1900
DGENRE=
TTITLE0=Remember December
TTITLE1=Merry Christmas To All
TTITLE2=It Don't Feel Much Like Christmas
TTITLE3=The Christmas Song
EXTD=
EXTT0=
EXTT1=
EXTT2=
EXTT3=
PLAYORDER=
